<svg width="336" height="121" viewBox="0 0 336 121" fill="none" xmlns="http://www.w3.org/2000/svg">
<g filter="url(#filter0_d_150_14)">
<path d="M103.404 65.4904C102.764 65.4904 102.209 65.3624 101.74 65.1064C101.313 64.8931 100.972 64.5304 100.716 64.0184C100.502 63.5064 100.396 62.8451 100.396 62.0344V36.4984C100.396 35.4744 100.652 34.7064 101.164 34.1944C101.676 33.6398 102.401 33.3624 103.34 33.3624C104.278 33.3624 105.004 33.6398 105.516 34.1944C106.028 34.7064 106.284 35.4744 106.284 36.4984V58.6424H104.62L121.964 35.4744C122.39 34.9198 122.881 34.4291 123.436 34.0024C123.99 33.5758 124.737 33.3624 125.676 33.3624C126.316 33.3624 126.849 33.4904 127.276 33.7464C127.702 33.9598 128.022 34.3224 128.236 34.8344C128.492 35.3464 128.62 36.0078 128.62 36.8184V62.3544C128.62 63.3358 128.364 64.1038 127.852 64.6584C127.382 65.2131 126.678 65.4904 125.74 65.4904C124.758 65.4904 124.012 65.2131 123.5 64.6584C122.988 64.1038 122.732 63.3358 122.732 62.3544V40.2104H124.46L107.052 63.4424C106.668 63.9544 106.198 64.4238 105.644 64.8504C105.132 65.2771 104.385 65.4904 103.404 65.4904ZM152.157 65.6184C148.957 65.6184 146.184 64.9571 143.837 63.6344C141.491 62.2691 139.677 60.2638 138.397 57.6184C137.16 54.9304 136.541 51.6238 136.541 47.6984V42.9624C136.541 38.7811 137.117 35.3038 138.269 32.5304C139.464 29.7144 141.235 27.4531 143.581 25.7464C145.928 23.9971 148.851 22.6744 152.349 21.7784L161.245 19.4104C162.141 19.1544 162.909 19.1971 163.549 19.5384C164.189 19.8798 164.616 20.4771 164.829 21.3304C165 22.2264 164.851 22.9731 164.381 23.5704C163.955 24.1678 163.272 24.5944 162.333 24.8504L152.797 27.2824C150.579 27.8371 148.723 28.7118 147.229 29.9064C145.736 31.1011 144.605 32.5731 143.837 34.3224C143.069 36.0718 142.685 38.0771 142.685 40.3384V43.2824H141.725C142.195 41.4478 142.963 39.8264 144.029 38.4184C145.139 37.0104 146.504 35.9224 148.125 35.1544C149.789 34.3438 151.688 33.9384 153.821 33.9384C156.467 33.9384 158.792 34.5784 160.797 35.8584C162.845 37.1384 164.445 38.9518 165.597 41.2984C166.749 43.6024 167.325 46.3544 167.325 49.5544C167.325 52.8398 166.685 55.6771 165.405 58.0664C164.168 60.4558 162.419 62.3118 160.157 63.6344C157.896 64.9571 155.229 65.6184 152.157 65.6184ZM151.901 60.6264C153.779 60.6264 155.379 60.2211 156.701 59.4104C158.024 58.5571 159.027 57.3198 159.709 55.6984C160.435 54.0771 160.797 52.1144 160.797 49.8104C160.797 46.3544 160.008 43.6878 158.429 41.8104C156.851 39.8904 154.675 38.9304 151.901 38.9304C150.067 38.9304 148.488 39.3571 147.165 40.2104C145.843 41.0638 144.819 42.2584 144.093 43.7944C143.411 45.3304 143.069 47.1864 143.069 49.3624C143.069 53.0318 143.837 55.8264 145.373 57.7464C146.952 59.6664 149.128 60.6264 151.901 60.6264ZM199.094 65.4904C198.07 65.4904 197.28 65.2131 196.726 64.6584C196.171 64.0611 195.894 63.2504 195.894 62.2264V38.9944H184.566V42.7704C184.566 45.9278 184.395 48.7438 184.054 51.2184C183.712 53.6504 183.179 55.7624 182.454 57.5544C181.728 59.3464 180.79 60.8611 179.638 62.0984C178.486 63.3358 177.078 64.3384 175.414 65.1064C174.688 65.4051 174.027 65.4904 173.43 65.3624C172.832 65.2344 172.32 64.9784 171.894 64.5944C171.51 64.1678 171.254 63.6771 171.126 63.1224C170.998 62.5678 171.062 62.0131 171.318 61.4584C171.574 60.8611 172.043 60.3704 172.726 59.9864C173.878 59.3464 174.816 58.5358 175.542 57.5544C176.31 56.5731 176.907 55.3998 177.334 54.0344C177.76 52.6264 178.059 50.9838 178.23 49.1064C178.443 47.2291 178.55 45.0531 178.55 42.5784V37.4584C178.55 36.3064 178.848 35.4104 179.446 34.7704C180.086 34.1304 181.003 33.8104 182.198 33.8104H198.71C199.862 33.8104 200.758 34.1304 201.398 34.7704C202.038 35.4104 202.358 36.3064 202.358 37.4584V62.2264C202.358 63.2504 202.059 64.0611 201.462 64.6584C200.907 65.2131 200.118 65.4904 199.094 65.4904ZM215.091 65.4904C214.451 65.4904 213.897 65.3624 213.427 65.1064C213.001 64.8931 212.659 64.5304 212.403 64.0184C212.19 63.5064 212.083 62.8451 212.083 62.0344V36.4984C212.083 35.4744 212.339 34.7064 212.851 34.1944C213.363 33.6398 214.089 33.3624 215.027 33.3624C215.966 33.3624 216.691 33.6398 217.203 34.1944C217.715 34.7064 217.971 35.4744 217.971 36.4984V58.6424H216.307L233.651 35.4744C234.078 34.9198 234.569 34.4291 235.123 34.0024C235.678 33.5758 236.425 33.3624 237.363 33.3624C238.003 33.3624 238.537 33.4904 238.963 33.7464C239.39 33.9598 239.71 34.3224 239.923 34.8344C240.179 35.3464 240.307 36.0078 240.307 36.8184V62.3544C240.307 63.3358 240.051 64.1038 239.539 64.6584C239.07 65.2131 238.366 65.4904 237.427 65.4904C236.446 65.4904 235.699 65.2131 235.187 64.6584C234.675 64.1038 234.419 63.3358 234.419 62.3544V40.2104H236.147L218.739 63.4424C218.355 63.9544 217.886 64.4238 217.331 64.8504C216.819 65.2771 216.073 65.4904 215.091 65.4904ZM272.421 65.4904C271.439 65.4904 270.693 65.2344 270.181 64.7224C269.669 64.1678 269.413 63.3998 269.413 62.4184V53.6504H265.381C263.887 53.6504 262.607 54.0344 261.541 54.8024C260.474 55.5704 259.599 56.5518 258.917 57.7464L255.525 63.6984C255.055 64.4664 254.501 64.9784 253.861 65.2344C253.221 65.5331 252.581 65.5971 251.941 65.4264C251.301 65.2558 250.746 64.9358 250.277 64.4664C249.807 63.9971 249.509 63.4424 249.381 62.8024C249.295 62.1198 249.466 61.4158 249.893 60.6904L252.453 56.3384C253.135 55.1438 254.074 54.1411 255.269 53.3304C256.506 52.4771 257.743 52.0504 258.981 52.0504H260.005V52.6904C256.463 52.6904 253.711 51.8798 251.749 50.2584C249.786 48.6371 248.805 46.3331 248.805 43.3464C248.805 41.4264 249.231 39.7624 250.085 38.3544C250.981 36.9038 252.303 35.7944 254.053 35.0264C255.802 34.2158 257.957 33.8104 260.517 33.8104H272.101C273.167 33.8104 273.978 34.1091 274.533 34.7064C275.13 35.2611 275.429 36.0718 275.429 37.1384V62.4184C275.429 63.3998 275.151 64.1678 274.597 64.7224C274.042 65.2344 273.317 65.4904 272.421 65.4904ZM261.861 49.2344H269.413V38.2264H261.861C259.514 38.2264 257.786 38.7171 256.677 39.6984C255.567 40.6371 255.013 41.9598 255.013 43.6664C255.013 45.4158 255.567 46.7811 256.677 47.7624C257.786 48.7438 259.514 49.2344 261.861 49.2344Z" fill="white"/>
<path fill-rule="evenodd" clip-rule="evenodd" d="M57.1293 63.5064C58.1959 64.5304 59.7319 65.0424 61.7373 65.0424H77.9933C82.8999 65.0424 86.7613 63.8478 89.5773 61.4584C92.4359 59.0691 93.8653 55.6558 93.8653 51.2184C93.8653 46.7811 92.4359 43.3891 89.5773 41.0424C86.7613 38.6531 82.8999 37.4584 77.9933 37.4584H66.8573V29.0104H85.2253C86.7186 29.0104 87.8493 28.6264 88.6173 27.8584C89.4279 27.0478 89.8333 25.8958 89.8333 24.4024C89.8333 22.9518 89.4279 21.8424 88.6173 21.0744C87.8493 20.3064 86.7186 19.9224 85.2253 19.9224H61.7373C59.7319 19.9224 58.1959 20.4558 57.1293 21.5224C56.1053 22.5464 55.5933 24.0398 55.5933 26.0024V58.9624C55.5933 60.9251 56.1053 62.4398 57.1293 63.5064ZM79.9278 56.3113V46.5335C79.9278 46.3715 79.8589 46.216 79.7363 46.1014C79.6137 45.9868 79.4473 45.9224 79.2739 45.9224C79.1005 45.9224 78.9342 45.9868 78.8116 46.1014C78.689 46.216 78.6201 46.3715 78.6201 46.5335V56.3113C78.6201 56.4734 78.689 56.6288 78.8116 56.7434C78.9342 56.858 79.1005 56.9224 79.2739 56.9224C79.4473 56.9224 79.6137 56.858 79.7363 56.7434C79.8589 56.6288 79.9278 56.4734 79.9278 56.3113ZM82.7347 46.1014C82.8573 45.9868 83.0236 45.9224 83.197 45.9224C83.3704 45.9224 83.5367 45.9868 83.6594 46.1014C83.782 46.216 83.8509 46.3715 83.8509 46.5335V56.3113C83.8509 56.4734 83.782 56.6288 83.6594 56.7434C83.5367 56.858 83.3704 56.9224 83.197 56.9224C83.0236 56.9224 82.8573 56.858 82.7347 56.7434C82.6121 56.6288 82.5432 56.4734 82.5432 56.3113V46.5335C82.5432 46.3715 82.6121 46.216 82.7347 46.1014ZM68.8516 46.1142L76.0595 50.4034V50.4019C76.2431 50.5108 76.3943 50.6613 76.4991 50.8395C76.6039 51.0176 76.6588 51.2176 76.6588 51.4209C76.6588 51.6242 76.6039 51.8242 76.4991 52.0023C76.3943 52.1805 76.2431 52.331 76.0595 52.4399L68.8516 56.7292C68.6545 56.8466 68.4272 56.9123 68.1935 56.9194C67.9598 56.9266 67.7284 56.8748 67.5235 56.7696C67.3203 56.6657 67.1507 56.5127 67.0324 56.3266C66.9141 56.1405 66.8514 55.9281 66.8509 55.7117V47.1332C66.8518 46.9156 66.9152 46.7022 67.0345 46.5154C67.1538 46.3285 67.3246 46.175 67.529 46.0709C67.7334 45.9668 67.964 45.9159 68.1966 45.9235C68.4293 45.9311 68.6555 45.997 68.8516 46.1142Z" fill="white"/>
</g>
<g filter="url(#filter1_d_150_14)">
<path d="M22.2357 110.652C21.8357 110.652 21.5317 110.54 21.3237 110.316C21.1157 110.092 21.0117 109.78 21.0117 109.38V103.596C20.5477 103.836 19.9477 104.028 19.2117 104.172C18.4917 104.3 17.7717 104.364 17.0517 104.364C15.6277 104.364 14.4117 104.108 13.4037 103.596C12.3957 103.068 11.6357 102.284 11.1237 101.244C10.6117 100.204 10.3557 98.9079 10.3557 97.3559V94.6679C10.3557 94.2519 10.4597 93.9399 10.6677 93.7319C10.8757 93.5079 11.1797 93.3959 11.5797 93.3959C11.9797 93.3959 12.2837 93.5079 12.4917 93.7319C12.7157 93.9399 12.8277 94.2519 12.8277 94.6679V97.2119C12.8277 98.9399 13.2037 100.204 13.9557 101.004C14.7077 101.804 15.8197 102.204 17.2917 102.204C17.9477 102.204 18.5957 102.14 19.2357 102.012C19.8757 101.884 20.4677 101.668 21.0117 101.364V94.6679C21.0117 94.2519 21.1157 93.9399 21.3237 93.7319C21.5317 93.5079 21.8357 93.3959 22.2357 93.3959C22.6357 93.3959 22.9397 93.5079 23.1477 93.7319C23.3717 93.9399 23.4837 94.2519 23.4837 94.6679V109.38C23.4837 109.78 23.3797 110.092 23.1717 110.316C22.9637 110.54 22.6517 110.652 22.2357 110.652ZM37.5854 110.652C37.1854 110.652 36.8734 110.54 36.6494 110.316C36.4414 110.092 36.3374 109.78 36.3374 109.38V95.6519H31.2494C30.9134 95.6519 30.6494 95.5639 30.4574 95.3879C30.2654 95.1959 30.1694 94.9319 30.1694 94.5959C30.1694 94.2599 30.2654 94.0039 30.4574 93.8279C30.6494 93.6519 30.9134 93.5639 31.2494 93.5639H43.8974C44.2494 93.5639 44.5214 93.6519 44.7134 93.8279C44.9054 94.0039 45.0014 94.2599 45.0014 94.5959C45.0014 94.9319 44.9054 95.1959 44.7134 95.3879C44.5214 95.5639 44.2494 95.6519 43.8974 95.6519H38.8094V109.38C38.8094 109.78 38.7054 110.092 38.4974 110.316C38.3054 110.54 38.0014 110.652 37.5854 110.652ZM53.0253 110.484C52.5933 110.484 52.2573 110.372 52.0173 110.148C51.7933 109.908 51.6813 109.572 51.6813 109.14V94.9079C51.6813 94.4759 51.7933 94.1479 52.0173 93.9239C52.2573 93.6839 52.5933 93.5639 53.0253 93.5639H61.7853C62.1213 93.5639 62.3773 93.6519 62.5533 93.8279C62.7293 93.9879 62.8173 94.2279 62.8173 94.5479C62.8173 94.8839 62.7293 95.1399 62.5533 95.3159C62.3773 95.4919 62.1213 95.5799 61.7853 95.5799H54.0813V100.884H61.2573C61.6093 100.884 61.8653 100.972 62.0253 101.148C62.2013 101.324 62.2893 101.572 62.2893 101.892C62.2893 102.228 62.2013 102.484 62.0253 102.66C61.8653 102.82 61.6093 102.9 61.2573 102.9H54.0813V108.468H61.7853C62.1213 108.468 62.3773 108.556 62.5533 108.732C62.7293 108.908 62.8173 109.156 62.8173 109.476C62.8173 109.812 62.7293 110.068 62.5533 110.244C62.3773 110.404 62.1213 110.484 61.7853 110.484H53.0253ZM71.8621 110.652C71.4621 110.652 71.1501 110.54 70.9261 110.316C70.7181 110.092 70.6141 109.78 70.6141 109.38V94.6679C70.6141 94.2519 70.7181 93.9399 70.9261 93.7319C71.1501 93.5079 71.4621 93.3959 71.8621 93.3959C72.2621 93.3959 72.5661 93.5079 72.7741 93.7319C72.9981 93.9399 73.1101 94.2519 73.1101 94.6679V100.86H82.5901V94.6679C82.5901 94.2519 82.6941 93.9399 82.9021 93.7319C83.1261 93.5079 83.4381 93.3959 83.8381 93.3959C84.2381 93.3959 84.5421 93.5079 84.7501 93.7319C84.9581 93.9399 85.0621 94.2519 85.0621 94.6679V109.38C85.0621 109.78 84.9581 110.092 84.7501 110.316C84.5421 110.54 84.2381 110.652 83.8381 110.652C83.4381 110.652 83.1261 110.54 82.9021 110.316C82.6941 110.092 82.5901 109.78 82.5901 109.38V102.948H73.1101V109.38C73.1101 109.78 73.0061 110.092 72.7981 110.316C72.5901 110.54 72.2781 110.652 71.8621 110.652ZM94.8685 110.652C94.7085 110.652 94.5565 110.628 94.4125 110.58C94.2845 110.532 94.1725 110.452 94.0765 110.34C93.9965 110.228 93.9325 110.1 93.8845 109.956C93.8365 109.796 93.8125 109.612 93.8125 109.404V94.5719C93.8125 94.2039 93.9165 93.9159 94.1245 93.7079C94.3325 93.4999 94.6205 93.3959 94.9885 93.3959C95.3565 93.3959 95.6365 93.4999 95.8285 93.7079C96.0205 93.9159 96.1165 94.2039 96.1165 94.5719V107.148H95.5885L105.405 94.1159C105.613 93.8439 105.805 93.6599 105.981 93.5639C106.173 93.4519 106.413 93.3959 106.701 93.3959C106.909 93.3959 107.085 93.4439 107.229 93.5399C107.373 93.6199 107.485 93.7479 107.565 93.9239C107.661 94.0999 107.709 94.3079 107.709 94.5479V109.452C107.709 109.836 107.613 110.132 107.421 110.34C107.229 110.548 106.941 110.652 106.557 110.652C106.189 110.652 105.901 110.548 105.693 110.34C105.501 110.132 105.405 109.836 105.405 109.452V96.8999H105.933L96.1165 109.908C95.9085 110.18 95.7245 110.372 95.5645 110.484C95.4045 110.596 95.1725 110.652 94.8685 110.652ZM117.792 110.484C117.36 110.484 117.024 110.372 116.784 110.148C116.56 109.908 116.448 109.572 116.448 109.14V94.9079C116.448 94.4759 116.56 94.1479 116.784 93.9239C117.024 93.6839 117.36 93.5639 117.792 93.5639H126.552C126.888 93.5639 127.144 93.6519 127.32 93.8279C127.496 93.9879 127.584 94.2279 127.584 94.5479C127.584 94.8839 127.496 95.1399 127.32 95.3159C127.144 95.4919 126.888 95.5799 126.552 95.5799H118.848V100.884H126.024C126.376 100.884 126.632 100.972 126.792 101.148C126.968 101.324 127.056 101.572 127.056 101.892C127.056 102.228 126.968 102.484 126.792 102.66C126.632 102.82 126.376 102.9 126.024 102.9H118.848V108.468H126.552C126.888 108.468 127.144 108.556 127.32 108.732C127.496 108.908 127.584 109.156 127.584 109.476C127.584 109.812 127.496 110.068 127.32 110.244C127.144 110.404 126.888 110.484 126.552 110.484H117.792ZM154.093 110.7C152.381 110.7 150.917 110.348 149.701 109.644C148.485 108.94 147.549 107.94 146.893 106.644C146.253 105.332 145.933 103.788 145.933 102.012C145.933 100.684 146.117 99.4919 146.485 98.4359C146.853 97.3639 147.381 96.4519 148.069 95.6999C148.773 94.9319 149.629 94.3479 150.637 93.9479C151.661 93.5479 152.813 93.3479 154.093 93.3479C155.037 93.3479 155.941 93.4759 156.805 93.7319C157.685 93.9879 158.445 94.3559 159.085 94.8359C159.357 95.0119 159.533 95.2279 159.613 95.4839C159.709 95.7239 159.725 95.9559 159.661 96.1799C159.613 96.4039 159.509 96.5959 159.349 96.7559C159.189 96.8999 158.981 96.9799 158.725 96.9959C158.485 97.0119 158.221 96.9239 157.933 96.7319C157.405 96.3319 156.821 96.0359 156.181 95.8439C155.541 95.6519 154.869 95.5559 154.165 95.5559C152.949 95.5559 151.925 95.8119 151.093 96.3239C150.261 96.8199 149.629 97.5479 149.197 98.5079C148.765 99.4679 148.549 100.636 148.549 102.012C148.549 103.388 148.765 104.564 149.197 105.54C149.629 106.5 150.261 107.236 151.093 107.748C151.925 108.244 152.949 108.492 154.165 108.492C154.869 108.492 155.541 108.396 156.181 108.204C156.837 107.996 157.453 107.692 158.029 107.292C158.317 107.116 158.573 107.036 158.797 107.052C159.037 107.068 159.237 107.148 159.397 107.292C159.557 107.436 159.661 107.62 159.709 107.844C159.773 108.052 159.765 108.276 159.685 108.516C159.621 108.74 159.469 108.932 159.229 109.092C158.573 109.62 157.797 110.02 156.901 110.292C156.005 110.564 155.069 110.7 154.093 110.7ZM179.904 110.652C179.504 110.652 179.192 110.54 178.968 110.316C178.76 110.092 178.656 109.78 178.656 109.38V94.9079C178.656 94.4759 178.768 94.1479 178.992 93.9239C179.232 93.6839 179.568 93.5639 180 93.5639H191.64C192.072 93.5639 192.4 93.6839 192.624 93.9239C192.848 94.1479 192.96 94.4759 192.96 94.9079V109.38C192.96 109.78 192.856 110.092 192.648 110.316C192.44 110.54 192.136 110.652 191.736 110.652C191.336 110.652 191.024 110.54 190.8 110.316C190.592 110.092 190.488 109.78 190.488 109.38V95.6519H181.152V109.38C181.152 109.78 181.048 110.092 180.84 110.316C180.632 110.54 180.32 110.652 179.904 110.652ZM201.595 110.652C201.275 110.652 201.019 110.58 200.827 110.436C200.635 110.292 200.523 110.1 200.491 109.86C200.459 109.62 200.507 109.348 200.635 109.044L207.139 94.4519C207.299 94.0679 207.499 93.7959 207.739 93.6359C207.995 93.4759 208.275 93.3959 208.579 93.3959C208.867 93.3959 209.131 93.4759 209.371 93.6359C209.627 93.7959 209.835 94.0679 209.995 94.4519L216.499 109.044C216.643 109.348 216.699 109.628 216.667 109.884C216.635 110.124 216.531 110.316 216.355 110.46C216.179 110.588 215.931 110.652 215.611 110.652C215.259 110.652 214.979 110.564 214.771 110.388C214.563 110.212 214.379 109.94 214.219 109.572L212.539 105.684L213.667 106.356H203.443L204.547 105.684L202.891 109.572C202.731 109.956 202.555 110.236 202.363 110.412C202.171 110.572 201.915 110.652 201.595 110.652ZM208.531 96.3239L204.907 104.916L204.307 104.34H212.779L212.227 104.916L208.579 96.3239H208.531ZM227.169 110.652C226.881 110.652 226.633 110.58 226.425 110.436C226.217 110.292 226.089 110.092 226.041 109.836C226.009 109.58 226.073 109.292 226.233 108.972L228.321 104.916V105.78L221.649 95.0759C221.489 94.7719 221.417 94.4919 221.433 94.2359C221.465 93.9799 221.585 93.7799 221.793 93.6359C222.001 93.4759 222.257 93.3959 222.561 93.3959C222.881 93.3959 223.129 93.4759 223.305 93.6359C223.481 93.7799 223.657 93.9879 223.833 94.2599L229.521 103.524H229.041L233.769 94.2839C233.913 94.0279 234.073 93.8199 234.249 93.6599C234.425 93.4839 234.681 93.3959 235.017 93.3959C235.305 93.3959 235.545 93.4679 235.737 93.6119C235.945 93.7559 236.073 93.9559 236.121 94.2119C236.185 94.4519 236.121 94.7399 235.929 95.0759L228.417 109.764C228.305 110.004 228.153 110.212 227.961 110.388C227.769 110.564 227.505 110.652 227.169 110.652ZM248.73 110.7C247.514 110.7 246.394 110.556 245.37 110.268C244.346 109.98 243.466 109.564 242.73 109.02C242.49 108.86 242.33 108.668 242.25 108.444C242.17 108.22 242.154 108.004 242.202 107.796C242.25 107.588 242.346 107.42 242.49 107.292C242.65 107.148 242.842 107.068 243.066 107.052C243.29 107.02 243.53 107.084 243.786 107.244C244.234 107.548 244.706 107.796 245.202 107.988C245.698 108.18 246.226 108.324 246.786 108.42C247.346 108.516 247.938 108.564 248.562 108.564C249.538 108.564 250.338 108.46 250.962 108.252C251.586 108.028 252.042 107.7 252.33 107.268C252.634 106.836 252.786 106.292 252.786 105.636C252.786 104.708 252.498 104.02 251.922 103.572C251.346 103.124 250.458 102.9 249.258 102.9H246.042C245.69 102.9 245.418 102.82 245.226 102.66C245.05 102.484 244.962 102.228 244.962 101.892C244.962 101.588 245.05 101.348 245.226 101.172C245.418 100.996 245.69 100.908 246.042 100.908H248.874C250.042 100.908 250.914 100.684 251.49 100.236C252.082 99.7879 252.378 99.1239 252.378 98.2439C252.378 97.6839 252.234 97.1959 251.946 96.7799C251.674 96.3479 251.258 96.0199 250.698 95.7959C250.138 95.5719 249.434 95.4599 248.586 95.4599C247.818 95.4599 247.058 95.5639 246.306 95.7719C245.554 95.9799 244.866 96.2839 244.242 96.6839C243.97 96.8439 243.722 96.9159 243.498 96.8999C243.274 96.8679 243.09 96.7799 242.946 96.6359C242.818 96.4919 242.73 96.3159 242.682 96.1079C242.634 95.8839 242.65 95.6679 242.73 95.4599C242.826 95.2519 242.994 95.0679 243.234 94.9079C244.002 94.3799 244.866 93.9879 245.826 93.7319C246.802 93.4759 247.802 93.3479 248.826 93.3479C250.17 93.3479 251.282 93.5399 252.162 93.9239C253.058 94.3079 253.73 94.8519 254.178 95.5559C254.626 96.2439 254.85 97.0519 254.85 97.9799C254.85 99.0039 254.546 99.8679 253.938 100.572C253.33 101.276 252.506 101.748 251.466 101.988V101.628C252.65 101.788 253.578 102.236 254.25 102.972C254.922 103.692 255.258 104.636 255.258 105.804C255.258 106.796 255.018 107.668 254.538 108.42C254.074 109.156 253.362 109.724 252.402 110.124C251.442 110.508 250.218 110.7 248.73 110.7ZM263.081 110.652C262.761 110.652 262.505 110.58 262.313 110.436C262.121 110.292 262.009 110.1 261.977 109.86C261.945 109.62 261.993 109.348 262.121 109.044L268.625 94.4519C268.785 94.0679 268.985 93.7959 269.225 93.6359C269.481 93.4759 269.761 93.3959 270.065 93.3959C270.353 93.3959 270.617 93.4759 270.857 93.6359C271.113 93.7959 271.321 94.0679 271.481 94.4519L277.985 109.044C278.129 109.348 278.185 109.628 278.153 109.884C278.121 110.124 278.017 110.316 277.841 110.46C277.665 110.588 277.417 110.652 277.097 110.652C276.745 110.652 276.465 110.564 276.257 110.388C276.049 110.212 275.865 109.94 275.705 109.572L274.025 105.684L275.153 106.356H264.929L266.033 105.684L264.377 109.572C264.217 109.956 264.041 110.236 263.849 110.412C263.657 110.572 263.401 110.652 263.081 110.652ZM270.017 96.3239L266.393 104.916L265.793 104.34H274.265L273.713 104.916L270.065 96.3239H270.017ZM286.848 110.652C286.48 110.652 286.192 110.548 285.984 110.34C285.792 110.132 285.696 109.844 285.696 109.476V94.5719C285.696 94.1879 285.8 93.8999 286.008 93.7079C286.216 93.4999 286.496 93.3959 286.848 93.3959C287.184 93.3959 287.44 93.4599 287.616 93.5879C287.808 93.6999 287.984 93.9079 288.144 94.2119L294.432 105.948H293.688L299.952 94.2119C300.112 93.9079 300.28 93.6999 300.456 93.5879C300.632 93.4599 300.888 93.3959 301.224 93.3959C301.576 93.3959 301.848 93.4999 302.04 93.7079C302.232 93.8999 302.328 94.1879 302.328 94.5719V109.476C302.328 109.844 302.232 110.132 302.04 110.34C301.864 110.548 301.592 110.652 301.224 110.652C300.856 110.652 300.576 110.548 300.384 110.34C300.192 110.132 300.096 109.844 300.096 109.476V97.0919H300.624L295.056 107.388C294.928 107.628 294.792 107.804 294.648 107.916C294.504 108.028 294.304 108.084 294.048 108.084C293.792 108.084 293.584 108.028 293.424 107.916C293.264 107.788 293.12 107.612 292.992 107.388L287.376 97.0679H287.952V109.476C287.952 109.844 287.856 110.132 287.664 110.34C287.488 110.548 287.216 110.652 286.848 110.652ZM312.176 110.652C312.016 110.652 311.864 110.628 311.72 110.58C311.592 110.532 311.48 110.452 311.384 110.34C311.304 110.228 311.24 110.1 311.192 109.956C311.144 109.796 311.12 109.612 311.12 109.404V94.5719C311.12 94.2039 311.224 93.9159 311.432 93.7079C311.64 93.4999 311.928 93.3959 312.296 93.3959C312.664 93.3959 312.944 93.4999 313.136 93.7079C313.328 93.9159 313.424 94.2039 313.424 94.5719V107.148H312.896L322.712 94.1159C322.92 93.8439 323.112 93.6599 323.288 93.5639C323.48 93.4519 323.72 93.3959 324.008 93.3959C324.216 93.3959 324.392 93.4439 324.536 93.5399C324.68 93.6199 324.792 93.7479 324.872 93.9239C324.968 94.0999 325.016 94.3079 325.016 94.5479V109.452C325.016 109.836 324.92 110.132 324.728 110.34C324.536 110.548 324.248 110.652 323.864 110.652C323.496 110.652 323.208 110.548 323 110.34C322.808 110.132 322.712 109.836 322.712 109.452V96.8999H323.24L313.424 109.908C313.216 110.18 313.032 110.372 312.872 110.484C312.712 110.596 312.48 110.652 312.176 110.652Z" fill="white"/>
</g>
<defs>
<filter id="filter0_d_150_14" x="45.5933" y="9.02643" width="239.836" height="66.656" filterUnits="userSpaceOnUse" color-interpolation-filters="sRGB">
<feFlood flood-opacity="0" result="BackgroundImageFix"/>
<feColorMatrix in="SourceAlpha" type="matrix" values="0 0 0 0 0 0 0 0 0 0 0 0 0 0 0 0 0 0 127 0" result="hardAlpha"/>
<feOffset/>
<feGaussianBlur stdDeviation="5"/>
<feComposite in2="hardAlpha" operator="out"/>
<feColorMatrix type="matrix" values="0 0 0 0 0 0 0 0 0 0 0 0 0 0 0 0 0 0 0.75 0"/>
<feBlend mode="normal" in2="BackgroundImageFix" result="effect1_dropShadow_150_14"/>
<feBlend mode="normal" in="SourceGraphic" in2="effect1_dropShadow_150_14" result="shape"/>
</filter>
<filter id="filter1_d_150_14" x="0.355713" y="83.3479" width="334.661" height="37.352" filterUnits="userSpaceOnUse" color-interpolation-filters="sRGB">
<feFlood flood-opacity="0" result="BackgroundImageFix"/>
<feColorMatrix in="SourceAlpha" type="matrix" values="0 0 0 0 0 0 0 0 0 0 0 0 0 0 0 0 0 0 127 0" result="hardAlpha"/>
<feOffset/>
<feGaussianBlur stdDeviation="5"/>
<feComposite in2="hardAlpha" operator="out"/>
<feColorMatrix type="matrix" values="0 0 0 0 0 0 0 0 0 0 0 0 0 0 0 0 0 0 0.75 0"/>
<feBlend mode="normal" in2="BackgroundImageFix" result="effect1_dropShadow_150_14"/>
<feBlend mode="normal" in="SourceGraphic" in2="effect1_dropShadow_150_14" result="shape"/>
</filter>
</defs>
</svg>
